<svg width="84" height="56" viewBox="0 0 84 56" fill="none" xmlns="http://www.w3.org/2000/svg">
<g clip-path="url(#clip0_2134_49937)">
<path d="M0.498535 0.557739H83.5928V55.9527H0.498535V0.557739Z" fill="white"/>
<path d="M0.498535 0.557739H83.5928V28.2552H0.498535V0.557739Z" fill="#D80027"/>
<path d="M14.0467 14.406C14.0467 10.3706 16.883 6.99946 20.6703 6.17225C20.0769 6.04216 19.4713 5.97643 18.8639 5.9762C14.2081 5.9762 10.4341 9.75017 10.4341 14.4059C10.4341 19.0616 14.2082 22.8357 18.8639 22.8357C19.4842 22.8357 20.0881 22.7668 20.6703 22.6397C16.883 21.8128 14.0467 18.4416 14.0467 14.406ZM24.8852 6.57847L25.4831 8.41839H27.4178L25.8525 9.55558L26.4503 11.3955L24.8852 10.2585L23.3199 11.3955L23.9179 9.55558L22.3526 8.41839H24.2873L24.8852 6.57847Z" fill="white"/>
<path d="M20.1923 10.1913L20.79 12.0312H22.7247L21.1594 13.1684L21.7573 15.0083L20.1923 13.8713L18.6269 15.0083L19.225 13.1684L17.6597 12.0312H19.5944L20.1923 10.1913ZM29.5783 10.1913L30.1762 12.0312H32.1109L30.5456 13.1684L31.1435 15.0083L29.5783 13.8713L28.0132 15.0083L28.6112 13.1684L27.0459 12.0312H28.9806L29.5783 10.1913ZM27.7719 15.6104L28.3697 17.4503H30.3044L28.7393 18.5875L29.3372 20.4275L27.7719 19.2904L26.2069 20.4275L26.8047 18.5875L25.2396 17.4503H27.1741L27.7719 15.6104ZM21.9986 15.6104L22.5963 17.4503H24.531L22.9659 18.5875L23.5637 20.4275L21.9986 19.2904L20.4334 20.4275L21.0313 18.5875L19.4662 17.4503H21.4007L21.9986 15.6104Z" fill="white"/>
</g>
<defs>
<clipPath id="clip0_2134_49937">
<rect width="83.0943" height="55.3961" fill="white" transform="translate(0.499023 0.557129)"/>
</clipPath>
</defs>
</svg>
